<?xml version="1.0" encoding="UTF-8"?>
<svg xmlns="http://www.w3.org/2000/svg" xmlns:xlink="http://www.w3.org/1999/xlink" width="133px" height="132px" viewBox="0 0 132 132" version="1.1">
<g id="surface1">
<path style=" stroke:none;fill-rule:nonzero;fill:rgb(0%,0%,0%);fill-opacity:1;" d="M 50.953125 7.390625 C 21.515625 14.519531 1.585938 44.878906 6.203125 75.371094 C 8.316406 88.835938 14.257812 99.925781 25.078125 110.089844 C 43.296875 127.117188 69.035156 131.339844 92.003906 120.78125 C 101.773438 116.292969 114.839844 103.488281 119.988281 93.324219 C 132 69.300781 127.117188 41.316406 107.449219 22.441406 C 91.738281 7.390625 72.335938 2.242188 50.953125 7.390625 Z M 79.859375 12.539062 C 107.449219 19.667969 125.269531 46.992188 120.515625 74.710938 C 118.933594 83.820312 114.3125 94.644531 109.296875 100.585938 L 106.261719 104.28125 L 94.378906 99.527344 C 87.910156 96.886719 81.707031 94.117188 80.914062 93.457031 C 78.539062 91.609375 78.804688 82.5 81.179688 80.519531 C 82.234375 79.726562 83.425781 77.617188 83.953125 76.164062 C 84.480469 74.578125 85.933594 71.941406 87.253906 70.222656 C 88.96875 67.980469 89.628906 64.546875 89.890625 57.683594 C 90.421875 32.605469 90.023438 31.414062 77.878906 24.816406 C 71.542969 21.382812 69.695312 20.988281 62.832031 21.648438 C 54.253906 22.308594 49.894531 24.816406 45.277344 31.679688 C 42.503906 35.507812 42.238281 37.488281 42.371094 51.742188 C 42.503906 64.414062 43.03125 67.980469 44.878906 70.355469 C 46.066406 71.941406 47.519531 74.578125 48.046875 76.164062 C 48.574219 77.617188 49.765625 79.726562 50.820312 80.519531 C 53.328125 82.5 53.460938 91.609375 51.085938 93.589844 C 50.027344 94.378906 45.277344 96.492188 40.523438 98.339844 C 35.640625 100.1875 30.492188 102.300781 28.90625 103.222656 C 26.53125 104.808594 25.871094 104.542969 22.96875 100.980469 C 13.597656 89.496094 8.976562 72.070312 11.484375 57.289062 C 17.160156 24.683594 48.179688 4.355469 79.859375 12.539062 Z M 79.859375 12.539062 "/>
</g>
</svg>
