<?xml version="1.0" encoding="UTF-8"?>
<svg xmlns="http://www.w3.org/2000/svg" xmlns:xlink="http://www.w3.org/1999/xlink" width="300px" height="118px" viewBox="0 0 55 22" version="1.1">
<g id="surface1">
<path style=" stroke:none;fill-rule:nonzero;fill:rgb(0%,0%,0%);fill-opacity:1;" d="M 18.566406 0.199219 C 16.574219 0.652344 14.96875 1.480469 13.25 2.941406 C 12.925781 3.21875 12.210938 3.683594 11.671875 3.976562 C 10.546875 4.558594 10.296875 4.863281 10.023438 6.058594 C 9.757812 7.191406 9.796875 7.238281 10.296875 6.496094 C 10.835938 5.679688 11.289062 5.277344 12.152344 4.890625 C 13.035156 4.476562 14.410156 4.351562 18.628906 4.328125 C 22.070312 4.304688 22.082031 4.304688 20.960938 4.144531 C 20.335938 4.046875 18.316406 3.9375 16.476562 3.902344 L 13.128906 3.816406 L 13.957031 3.050781 C 14.933594 2.136719 16.261719 1.429688 17.730469 1.039062 C 18.519531 0.832031 19.117188 0.773438 20.421875 0.761719 C 21.941406 0.75 22.140625 0.773438 22.65625 1.027344 C 23.363281 1.382812 24.460938 2.574219 25.070312 3.648438 C 25.320312 4.097656 25.546875 4.464844 25.5625 4.464844 C 25.894531 4.464844 29.660156 4.914062 31.144531 5.132812 C 34.371094 5.609375 36.554688 6.167969 37.394531 6.726562 C 37.667969 6.910156 37.726562 6.910156 38.132812 6.714844 C 38.515625 6.53125 38.804688 6.507812 40.203125 6.570312 C 41.085938 6.617188 42.292969 6.738281 42.878906 6.835938 C 43.453125 6.945312 43.953125 7.007812 43.992188 6.972656 C 44.085938 6.886719 41.875 6.203125 40.394531 5.863281 C 37.417969 5.191406 31.90625 4.425781 27.59375 4.097656 C 26.335938 4 26.015625 3.9375 25.882812 3.769531 C 25.332031 2.976562 24.269531 1.539062 23.996094 1.1875 L 23.671875 0.785156 L 24.316406 0.871094 C 30.148438 1.636719 30.902344 1.855469 33.484375 3.5625 C 34.714844 4.378906 34.644531 4.207031 33.367188 3.234375 C 31.441406 1.785156 30.628906 1.441406 27.652344 0.796875 C 24.710938 0.175781 23.960938 0.0664062 21.734375 0.0195312 C 19.933594 -0.03125 19.417969 0.0078125 18.566406 0.199219 Z M 18.566406 0.199219 "/>
<path style=" stroke:none;fill-rule:nonzero;fill:rgb(0%,0%,0%);fill-opacity:1;" d="M 16.65625 4.839844 C 12.925781 4.960938 12.257812 5.132812 11.132812 6.3125 C 10.574219 6.898438 9.878906 7.957031 9.988281 8.054688 C 10.035156 8.117188 10.429688 7.859375 11.515625 7.082031 C 11.910156 6.800781 12.1875 6.714844 12.773438 6.679688 C 13.429688 6.628906 13.597656 6.679688 14.265625 7.03125 C 14.933594 7.386719 15.1875 7.445312 16.40625 7.53125 C 18.328125 7.675781 26.183594 7.53125 26.910156 7.324219 C 27.222656 7.238281 27.808594 7.03125 28.214844 6.847656 C 29.539062 6.277344 30.246094 6.449219 32.015625 7.75 C 33.496094 8.859375 33.925781 8.992188 36.078125 9.066406 C 37.070312 9.089844 37.847656 9.089844 37.8125 9.054688 C 37.777344 9.015625 37.214844 8.871094 36.554688 8.734375 C 35.074219 8.433594 34.070312 7.933594 33.34375 7.152344 C 33.042969 6.8125 32.792969 6.484375 32.792969 6.410156 C 32.792969 6.203125 33.414062 6.265625 34.632812 6.59375 C 36.089844 6.984375 36.84375 7.371094 37.65625 8.152344 C 38.003906 8.480469 38.324219 8.734375 38.347656 8.699219 C 38.386719 8.664062 38.171875 8.296875 37.871094 7.894531 C 36.949219 6.652344 35.683594 6.167969 31.894531 5.632812 C 26.898438 4.925781 21.941406 4.667969 16.65625 4.839844 Z M 16.65625 4.839844 "/>
<path style=" stroke:none;fill-rule:nonzero;fill:rgb(0%,0%,0%);fill-opacity:1;" d="M 38.625 7.019531 C 38.132812 7.324219 38.5625 8.542969 39.449219 9.332031 C 40.128906 9.941406 41.097656 10.320312 42.175781 10.367188 C 42.988281 10.417969 42.988281 10.417969 42.355469 10.320312 C 40.90625 10.113281 40.023438 9.625 39.472656 8.75 C 39.234375 8.371094 39.125 8.054688 39.148438 7.8125 C 39.1875 7.445312 39.199219 7.445312 39.960938 7.410156 C 40.382812 7.386719 41.445312 7.421875 42.304688 7.496094 C 44.3125 7.640625 44.78125 7.859375 44.996094 8.726562 C 45.078125 9.027344 45.078125 9.027344 45.089844 8.6875 C 45.140625 7.605469 43.8125 7.117188 40.296875 6.957031 C 39.328125 6.910156 38.757812 6.933594 38.625 7.019531 Z M 38.625 7.019531 "/>
<path style=" stroke:none;fill-rule:nonzero;fill:rgb(0%,0%,0%);fill-opacity:1;" d="M 12.367188 7.140625 C 11.933594 7.25 11.386719 7.617188 11.300781 7.847656 C 11.265625 7.957031 11.527344 7.992188 12.210938 7.992188 L 13.167969 7.992188 L 13.476562 8.542969 L 13.800781 9.089844 L 13.476562 9.636719 L 13.167969 10.1875 L 12.222656 10.1875 C 11.707031 10.1875 11.277344 10.234375 11.277344 10.296875 C 11.277344 10.355469 11.445312 10.539062 11.660156 10.683594 C 12.402344 11.234375 13.929688 11.074219 14.277344 10.417969 C 14.386719 10.199219 14.671875 10.1875 21.199219 10.1875 C 27.722656 10.1875 28.011719 10.199219 28.117188 10.417969 C 28.296875 10.734375 28.980469 11.039062 29.566406 11.039062 C 30.101562 11.039062 30.582031 10.832031 30.925781 10.441406 L 31.152344 10.1875 L 29.230469 10.1875 L 28.90625 9.625 L 28.585938 9.066406 L 28.929688 8.503906 L 29.277344 7.933594 L 30.140625 7.894531 C 30.617188 7.871094 31 7.8125 31 7.75 C 31 7.605469 30.292969 7.191406 29.886719 7.09375 C 29.410156 6.984375 28.667969 7.214844 28.203125 7.628906 L 27.796875 7.992188 L 21.089844 7.992188 C 16.765625 7.992188 14.386719 7.957031 14.386719 7.871094 C 14.386719 7.691406 13.535156 7.175781 13.128906 7.117188 C 12.9375 7.082031 12.59375 7.09375 12.367188 7.140625 Z M 12.367188 7.140625 "/>
<path style=" stroke:none;fill-rule:nonzero;fill:rgb(0%,0%,0%);fill-opacity:1;" d="M 43.703125 10.390625 C 43.8125 10.417969 44.003906 10.417969 44.121094 10.390625 C 44.230469 10.355469 44.132812 10.332031 43.90625 10.332031 C 43.679688 10.332031 43.585938 10.355469 43.703125 10.390625 Z M 43.703125 10.390625 "/>
<path style=" stroke:none;fill-rule:nonzero;fill:rgb(0%,0%,0%);fill-opacity:1;" d="M 1.644531 14.800781 C 1.035156 15.082031 0.316406 15.933594 0.152344 16.566406 C -0.0625 17.355469 0.0898438 18.417969 0.484375 19 C 1.058594 19.84375 1.679688 20.195312 2.683594 20.269531 C 3.757812 20.339844 3.867188 20.230469 3.867188 19.039062 C 3.867188 17.855469 3.773438 17.734375 2.921875 17.734375 C 2.085938 17.734375 1.835938 17.929688 2.050781 18.40625 C 2.160156 18.636719 2.277344 18.710938 2.554688 18.710938 C 2.851562 18.710938 2.910156 18.757812 2.910156 19.011719 C 2.910156 19.269531 2.851562 19.320312 2.5625 19.320312 C 2.167969 19.320312 1.550781 18.914062 1.203125 18.441406 C 0.867188 17.992188 0.867188 16.871094 1.203125 16.421875 C 1.632812 15.824219 2.167969 15.542969 2.863281 15.542969 C 3.6875 15.542969 4.128906 15.128906 3.722656 14.714844 C 3.496094 14.484375 2.207031 14.546875 1.644531 14.800781 Z M 1.644531 14.800781 "/>
<path style=" stroke:none;fill-rule:nonzero;fill:rgb(0%,0%,0%);fill-opacity:1;" d="M 25.738281 14.75 C 25.597656 14.933594 25.691406 15.3125 26.410156 17.527344 C 26.875 18.941406 27.328125 20.144531 27.4375 20.207031 C 27.832031 20.460938 27.988281 20.183594 28.847656 17.550781 C 29.539062 15.433594 29.683594 14.898438 29.566406 14.75 C 29.386719 14.53125 29.039062 14.519531 28.882812 14.714844 C 28.8125 14.800781 28.523438 15.582031 28.25 16.457031 C 27.976562 17.320312 27.710938 18.089844 27.675781 18.148438 C 27.640625 18.210938 27.339844 17.441406 27.007812 16.445312 C 26.503906 14.933594 26.347656 14.617188 26.148438 14.59375 C 26.015625 14.570312 25.824219 14.640625 25.738281 14.75 Z M 25.738281 14.75 "/>
<path style=" stroke:none;fill-rule:nonzero;fill:rgb(0%,0%,0%);fill-opacity:1;" d="M 33.953125 14.652344 C 33.902344 14.691406 33.867188 15.921875 33.867188 17.371094 C 33.867188 20.207031 33.914062 20.414062 34.464844 20.230469 C 34.667969 20.171875 34.703125 20.046875 34.703125 19.425781 L 34.703125 18.710938 L 35.324219 18.710938 C 36.710938 18.710938 37.65625 17.746094 37.550781 16.457031 C 37.488281 15.675781 37.035156 14.996094 36.425781 14.738281 C 36.019531 14.570312 34.09375 14.496094 33.953125 14.652344 Z M 36.234375 15.738281 C 36.640625 16.019531 36.773438 16.46875 36.605469 16.96875 C 36.449219 17.46875 35.984375 17.734375 35.242188 17.734375 L 34.703125 17.734375 L 34.703125 15.542969 L 35.335938 15.542969 C 35.71875 15.542969 36.066406 15.617188 36.234375 15.738281 Z M 36.234375 15.738281 "/>
<path style=" stroke:none;fill-rule:nonzero;fill:rgb(0%,0%,0%);fill-opacity:1;" d="M 52.714844 14.652344 C 52.667969 14.691406 52.632812 15.738281 52.632812 16.96875 L 52.632812 19.207031 L 53.085938 19.695312 C 53.457031 20.109375 53.636719 20.207031 54.113281 20.253906 C 54.59375 20.316406 54.738281 20.292969 54.855469 20.109375 C 55.082031 19.792969 54.867188 19.441406 54.4375 19.441406 C 54.246094 19.441406 53.957031 19.328125 53.78125 19.183594 C 53.492188 18.953125 53.46875 18.867188 53.46875 17.980469 L 53.46875 17.015625 L 53.921875 16.980469 C 54.328125 16.945312 54.367188 16.90625 54.367188 16.578125 C 54.367188 16.25 54.328125 16.210938 53.921875 16.175781 L 53.46875 16.140625 L 53.46875 15.496094 C 53.46875 15.152344 53.410156 14.800781 53.324219 14.714844 C 53.171875 14.554688 52.835938 14.519531 52.714844 14.652344 Z M 52.714844 14.652344 "/>
<path style=" stroke:none;fill-rule:nonzero;fill:rgb(0%,0%,0%);fill-opacity:1;" d="M 5.457031 16.273438 C 4.726562 16.601562 4.464844 17.101562 4.464844 18.160156 C 4.464844 18.792969 4.523438 19.109375 4.703125 19.414062 C 5.15625 20.160156 6.019531 20.472656 6.808594 20.171875 C 7.023438 20.085938 7.167969 20.085938 7.285156 20.183594 C 7.371094 20.253906 7.550781 20.28125 7.691406 20.230469 C 7.917969 20.160156 7.929688 20.0625 7.929688 18.792969 C 7.929688 17.140625 7.765625 16.722656 6.976562 16.296875 C 6.328125 15.96875 6.101562 15.96875 5.457031 16.273438 Z M 6.820312 17.273438 C 7.035156 17.480469 7.09375 17.664062 7.09375 18.171875 C 7.09375 18.914062 6.855469 19.28125 6.292969 19.390625 C 5.984375 19.453125 5.851562 19.402344 5.613281 19.160156 C 5.195312 18.734375 5.171875 17.710938 5.566406 17.285156 C 5.898438 16.917969 6.449219 16.917969 6.820312 17.273438 Z M 6.820312 17.273438 "/>
<path style=" stroke:none;fill-rule:nonzero;fill:rgb(0%,0%,0%);fill-opacity:1;" d="M 10.082031 16.164062 C 9.914062 16.238281 9.652344 16.40625 9.507812 16.554688 C 8.984375 17.042969 8.886719 17.40625 8.886719 18.746094 C 8.886719 20.109375 8.996094 20.390625 9.472656 20.230469 C 9.675781 20.171875 9.710938 20.023438 9.75 18.84375 C 9.785156 17.320312 9.9375 17.003906 10.632812 17.003906 C 11.003906 17.003906 11.398438 16.75 11.398438 16.515625 C 11.398438 16.457031 11.3125 16.324219 11.207031 16.226562 C 11.003906 16.007812 10.535156 15.980469 10.082031 16.164062 Z M 10.082031 16.164062 "/>
<path style=" stroke:none;fill-rule:nonzero;fill:rgb(0%,0%,0%);fill-opacity:1;" d="M 12.890625 16.199219 C 11.828125 16.699219 11.421875 18.125 12.03125 19.320312 C 12.4375 20.121094 13.394531 20.511719 14.207031 20.183594 C 14.335938 20.121094 14.539062 20.144531 14.660156 20.21875 C 14.804688 20.316406 14.921875 20.316406 15.078125 20.21875 C 15.257812 20.097656 15.28125 19.878906 15.28125 18.671875 C 15.28125 17.441406 15.246094 17.222656 15.03125 16.929688 C 14.480469 16.175781 13.585938 15.871094 12.890625 16.199219 Z M 14.160156 17.234375 C 14.386719 17.417969 14.433594 17.578125 14.433594 18.160156 C 14.445312 18.769531 14.410156 18.878906 14.109375 19.148438 C 13.667969 19.535156 13.371094 19.511719 12.925781 19.074219 C 12.59375 18.734375 12.570312 18.648438 12.617188 18.089844 C 12.652344 17.746094 12.773438 17.382812 12.890625 17.246094 C 13.167969 16.945312 13.789062 16.929688 14.160156 17.234375 Z M 14.160156 17.234375 "/>
<path style=" stroke:none;fill-rule:nonzero;fill:rgb(0%,0%,0%);fill-opacity:1;" d="M 16.929688 16.273438 C 16.203125 16.601562 15.941406 17.101562 15.941406 18.160156 C 15.941406 19.621094 16.621094 20.351562 17.886719 20.253906 C 18.664062 20.183594 18.773438 20.339844 18.269531 20.839844 C 17.863281 21.265625 17.445312 21.230469 16.945312 20.71875 C 16.488281 20.253906 16.417969 20.21875 16.203125 20.4375 C 15.976562 20.667969 16.035156 21.058594 16.371094 21.425781 C 16.929688 22.046875 17.769531 22.167969 18.542969 21.765625 C 19.296875 21.363281 19.40625 21.046875 19.40625 19.050781 C 19.40625 17.515625 19.382812 17.261719 19.167969 16.90625 C 18.914062 16.492188 18.125 16.03125 17.671875 16.03125 C 17.539062 16.03125 17.207031 16.140625 16.929688 16.273438 Z M 18.328125 17.273438 C 18.699219 17.671875 18.664062 18.746094 18.269531 19.136719 C 17.898438 19.523438 17.445312 19.523438 17.074219 19.136719 C 16.667969 18.734375 16.644531 17.710938 17.039062 17.285156 C 17.375 16.917969 17.996094 16.90625 18.328125 17.273438 Z M 18.328125 17.273438 "/>
<path style=" stroke:none;fill-rule:nonzero;fill:rgb(0%,0%,0%);fill-opacity:1;" d="M 20.996094 16.164062 C 20.515625 16.308594 20.039062 16.882812 19.933594 17.441406 C 19.691406 18.722656 20.15625 19.878906 21.03125 20.171875 C 21.941406 20.488281 23.160156 19.988281 23.085938 19.328125 C 23.039062 18.914062 22.621094 18.84375 22.203125 19.183594 C 21.796875 19.5 21.554688 19.5 21.152344 19.183594 C 20.566406 18.722656 20.730469 18.601562 22.011719 18.5625 L 23.167969 18.527344 L 23.207031 17.980469 C 23.277344 16.6875 22.191406 15.800781 20.996094 16.164062 Z M 22.082031 17.199219 C 22.464844 17.589844 22.320312 17.734375 21.554688 17.734375 C 21.019531 17.734375 20.839844 17.699219 20.839844 17.566406 C 20.839844 17.273438 21.1875 17.003906 21.554688 17.003906 C 21.746094 17.003906 21.988281 17.089844 22.082031 17.199219 Z M 22.082031 17.199219 "/>
<path style=" stroke:none;fill-rule:nonzero;fill:rgb(0%,0%,0%);fill-opacity:1;" d="M 39.054688 16.261719 C 38.339844 16.589844 38.050781 17.140625 38.050781 18.171875 C 38.050781 19.148438 38.289062 19.660156 38.910156 20.046875 C 39.34375 20.316406 40.082031 20.363281 40.453125 20.160156 C 40.632812 20.074219 40.738281 20.074219 40.859375 20.171875 C 40.957031 20.242188 41.132812 20.28125 41.277344 20.230469 C 41.503906 20.160156 41.515625 20.0625 41.515625 18.746094 C 41.515625 17.089844 41.335938 16.640625 40.511719 16.261719 C 39.902344 15.980469 39.664062 15.980469 39.054688 16.261719 Z M 40.40625 17.273438 C 40.8125 17.664062 40.800781 18.722656 40.382812 19.136719 C 40.011719 19.523438 39.558594 19.523438 39.1875 19.136719 C 38.78125 18.734375 38.757812 17.710938 39.148438 17.285156 C 39.484375 16.917969 40.035156 16.917969 40.40625 17.273438 Z M 40.40625 17.273438 "/>
<path style=" stroke:none;fill-rule:nonzero;fill:rgb(0%,0%,0%);fill-opacity:1;" d="M 43.667969 16.164062 C 43.5 16.238281 43.238281 16.40625 43.09375 16.554688 C 42.570312 17.042969 42.472656 17.40625 42.472656 18.746094 C 42.472656 20.085938 42.570312 20.363281 43.035156 20.269531 C 43.226562 20.230469 43.261719 20.046875 43.308594 18.867188 C 43.382812 17.320312 43.535156 17.003906 44.207031 17.003906 C 44.433594 17.003906 44.671875 16.90625 44.804688 16.761719 C 45.007812 16.53125 45.007812 16.503906 44.804688 16.273438 C 44.578125 16.019531 44.144531 15.96875 43.667969 16.164062 Z M 43.667969 16.164062 "/>
<path style=" stroke:none;fill-rule:nonzero;fill:rgb(0%,0%,0%);fill-opacity:1;" d="M 46.894531 16.164062 C 46.726562 16.238281 46.464844 16.40625 46.320312 16.554688 C 45.796875 17.042969 45.699219 17.40625 45.699219 18.746094 C 45.699219 20.109375 45.808594 20.390625 46.296875 20.230469 C 46.511719 20.160156 46.539062 20.0625 46.539062 18.902344 C 46.539062 17.820312 46.574219 17.601562 46.789062 17.320312 C 46.941406 17.113281 47.148438 17.003906 47.375 17.003906 C 47.910156 17.003906 48.089844 16.882812 48.089844 16.515625 C 48.089844 16.042969 47.578125 15.882812 46.894531 16.164062 Z M 46.894531 16.164062 "/>
<path style=" stroke:none;fill-rule:nonzero;fill:rgb(0%,0%,0%);fill-opacity:1;" d="M 49.703125 16.199219 C 48.9375 16.554688 48.570312 17.234375 48.570312 18.257812 C 48.570312 19.5 49.394531 20.351562 50.492188 20.253906 C 51.570312 20.160156 52.09375 19.464844 52.09375 18.136719 C 52.09375 17.210938 51.925781 16.832031 51.304688 16.371094 C 50.910156 16.078125 50.144531 15.992188 49.703125 16.199219 Z M 50.960938 17.246094 C 51.148438 17.441406 51.199219 17.648438 51.199219 18.210938 C 51.199219 18.84375 51.164062 18.964844 50.886719 19.183594 C 50.445312 19.535156 50.171875 19.5 49.742188 19.074219 C 49.40625 18.734375 49.382812 18.648438 49.429688 18.089844 C 49.464844 17.746094 49.585938 17.382812 49.703125 17.246094 C 49.992188 16.929688 50.648438 16.929688 50.960938 17.246094 Z M 50.960938 17.246094 "/>
<path style=" stroke:none;fill-rule:nonzero;fill:rgb(0%,0%,0%);fill-opacity:1;" d="M 30.125 19.171875 C 29.875 19.453125 29.863281 19.851562 30.113281 20.097656 C 30.496094 20.488281 31.117188 20.230469 31.117188 19.683594 C 31.117188 19.039062 30.519531 18.734375 30.125 19.171875 Z M 30.125 19.171875 "/>
</g>
</svg>
